
<svg display="none">
	<defs>
		<g id="img-arrow-back-outline">
			<path xmlns="http://www.w3.org/2000/svg" d="M19 11H7.14l3.63-4.36a1 1 0 1 0-1.54-1.28l-5 6a1.19 1.19 0 0 0-.09.15c0 .05 0 .08-.07.13A1 1 0 0 0 4 12a1 1 0 0 0 .07.36c0 .05 0 .08.07.13a1.19 1.19 0 0 0 .09.15l5 6A1 1 0 0 0 10 19a1 1 0 0 0 .64-.23 1 1 0 0 0 .13-1.41L7.14 13H19a1 1 0 0 0 0-2z"/>
		</g>
		<g id="img-arrow-ios-back-outline">
			<path xmlns="http://www.w3.org/2000/svg" d="M13.83 19a1 1 0 0 1-.78-.37l-4.83-6a1 1 0 0 1 0-1.27l5-6a1 1 0 0 1 1.54 1.28L10.29 12l4.32 5.36a1 1 0 0 1-.78 1.64z"/>
		</g>
		<g id="img-arrow-left">
			<path xmlns="http://www.w3.org/2000/svg" fill="#313742" d="M13.54 18a2.06 2.06 0 0 1-1.3-.46l-5.1-4.21a1.7 1.7 0 0 1 0-2.66l5.1-4.21a2.1 2.1 0 0 1 2.21-.26 1.76 1.76 0 0 1 1.05 1.59v8.42a1.76 1.76 0 0 1-1.05 1.59 2.23 2.23 0 0 1-.91.2z"/>
		</g>
		<g id="img-arrow-left-outline">
			<path xmlns="http://www.w3.org/2000/svg" d="M13.54 18a2.06 2.06 0 0 1-1.3-.46l-5.1-4.21a1.7 1.7 0 0 1 0-2.66l5.1-4.21a2.1 2.1 0 0 1 2.21-.26 1.76 1.76 0 0 1 1.05 1.59v8.42a1.76 1.76 0 0 1-1.05 1.59 2.23 2.23 0 0 1-.91.2zm-4.86-6l4.82 4V8.09z"/>
		</g>
		<g id="img-arrow-right">
			<path xmlns="http://www.w3.org/2000/svg" fill="#313742" d="M10.46 18a2.23 2.23 0 0 1-.91-.2 1.76 1.76 0 0 1-1.05-1.59V7.79A1.76 1.76 0 0 1 9.55 6.2a2.1 2.1 0 0 1 2.21.26l5.1 4.21a1.7 1.7 0 0 1 0 2.66l-5.1 4.21a2.06 2.06 0 0 1-1.3.46z"/>
		</g>
		<g id="img-arrow-right--big">
			<path xmlns="http://www.w3.org/2000/svg" fill="#4fb9e1" d="M10.46 18a2.23 2.23 0 0 1-.91-.2 1.76 1.76 0 0 1-1.05-1.59V7.79A1.76 1.76 0 0 1 9.55 6.2a2.1 2.1 0 0 1 2.21.26l5.1 4.21a1.7 1.7 0 0 1 0 2.66l-5.1 4.21a2.06 2.06 0 0 1-1.3.46z"/>
		</g>
		<g id="img-arrow-right-outline">
			<path xmlns="http://www.w3.org/2000/svg" d="M10.46 18a2.23 2.23 0 0 1-.91-.2 1.76 1.76 0 0 1-1.05-1.59V7.79A1.76 1.76 0 0 1 9.55 6.2a2.1 2.1 0 0 1 2.21.26l5.1 4.21a1.7 1.7 0 0 1 0 2.66l-5.1 4.21a2.06 2.06 0 0 1-1.3.46zm0-10v7.9l4.86-3.9z"/>
		</g>
		<g id="img-bar-chart-2">
			<path xmlns="http://www.w3.org/2000/svg" d="M12 8a1 1 0 0 0-1 1v11a1 1 0 0 0 2 0V9a1 1 0 0 0-1-1z"/><path xmlns="http://www.w3.org/2000/svg" d="M19 4a1 1 0 0 0-1 1v15a1 1 0 0 0 2 0V5a1 1 0 0 0-1-1z"/><path xmlns="http://www.w3.org/2000/svg" d="M5 12a1 1 0 0 0-1 1v7a1 1 0 0 0 2 0v-7a1 1 0 0 0-1-1z"/>
		</g>
		<g id="img-chevron-left-outline">
			<path xmlns="http://www.w3.org/2000/svg" fill="#fff" d="M13.36 17a1 1 0 0 1-.72-.31l-3.86-4a1 1 0 0 1 0-1.4l4-4a1 1 0 1 1 1.42 1.42L10.9 12l3.18 3.3a1 1 0 0 1 0 1.41 1 1 0 0 1-.72.29z"/>
		</g>
		<g id="img-minus">
			<path xmlns="http://www.w3.org/2000/svg" d="M19 13H5a1 1 0 0 1 0-2h14a1 1 0 0 1 0 2z"/>
		</g>
		<g id="img-more-horizontal-outline">
			<circle xmlns="http://www.w3.org/2000/svg" cx="12" cy="12" r="2" fill="#fff"/><circle xmlns="http://www.w3.org/2000/svg" cx="19" cy="12" r="2" fill="#fff"/><circle xmlns="http://www.w3.org/2000/svg" cx="5" cy="12" r="2" fill="#fff"/>
		</g>
		<g id="img-play">
			<path xmlns="http://www.w3.org/2000/svg" fill="#4fb9e1" d="M295.84,146.049l-256-144c-4.96-2.784-11.008-2.72-15.904,0.128C19.008,5.057,16,10.305,16,16.001v288 c0,5.696,3.008,10.944,7.936,13.824c2.496,1.44,5.28,2.176,8.064,2.176c2.688,0,5.408-0.672,7.84-2.048l256-144 c5.024-2.848,8.16-8.16,8.16-13.952S300.864,148.897,295.84,146.049z"/>
		</g>
		<g id="img-plus-square">
			<path xmlns="http://www.w3.org/2000/svg" d="M18 3H6a3 3 0 0 0-3 3v12a3 3 0 0 0 3 3h12a3 3 0 0 0 3-3V6a3 3 0 0 0-3-3zm-3 10h-2v2a1 1 0 0 1-2 0v-2H9a1 1 0 0 1 0-2h2V9a1 1 0 0 1 2 0v2h2a1 1 0 0 1 0 2z"/>
		</g>
		<g id="img-repeat-outline">
			<path xmlns="http://www.w3.org/2000/svg" d="M17.91 5h-12l1.3-1.29a1 1 0 0 0-1.42-1.42l-3 3a1 1 0 0 0 0 1.42l3 3a1 1 0 0 0 1.42 0 1 1 0 0 0 0-1.42L5.91 7h12a1.56 1.56 0 0 1 1.59 1.53V11a1 1 0 0 0 2 0V8.53A3.56 3.56 0 0 0 17.91 5z"/><path xmlns="http://www.w3.org/2000/svg" d="M18.21 14.29a1 1 0 0 0-1.42 1.42l1.3 1.29h-12a1.56 1.56 0 0 1-1.59-1.53V13a1 1 0 0 0-2 0v2.47A3.56 3.56 0 0 0 6.09 19h12l-1.3 1.29a1 1 0 0 0 0 1.42 1 1 0 0 0 1.42 0l3-3a1 1 0 0 0 0-1.42z"/>
		</g>
		<g id="img-shuffle-2-outline">
			<path xmlns="http://www.w3.org/2000/svg" d="M18.71 14.29a1 1 0 0 0-1.42 1.42l.29.29H16a4 4 0 0 1 0-8h1.59l-.3.29a1 1 0 0 0 0 1.42A1 1 0 0 0 18 10a1 1 0 0 0 .71-.29l2-2A1 1 0 0 0 21 7a1 1 0 0 0-.29-.71l-2-2a1 1 0 0 0-1.42 1.42l.29.29H16a6 6 0 0 0-5 2.69A6 6 0 0 0 6 6H4a1 1 0 0 0 0 2h2a4 4 0 0 1 0 8H4a1 1 0 0 0 0 2h2a6 6 0 0 0 5-2.69A6 6 0 0 0 16 18h1.59l-.3.29a1 1 0 0 0 0 1.42A1 1 0 0 0 18 20a1 1 0 0 0 .71-.29l2-2A1 1 0 0 0 21 17a1 1 0 0 0-.29-.71z"/>
		</g>
		<g id="img-stop">
			<path xmlns="http://www.w3.org/2000/svg" fill="#4fb9e1" d="M288,0H32C14.368,0,0,14.368,0,32v256c0,17.632,14.368,32,32,32h256c17.632,0,32-14.368,32-32V32 C320,14.368,305.632,0,288,0z"/>
		</g>
	</defs>
</svg>
